<svg xmlns="http://www.w3.org/2000/svg" xmlns:xlink="http://www.w3.org/1999/xlink" preserveAspectRatio="xMidYMid" width="29" height="25" viewBox="0 0 29 25">
  <defs>
    <style>

      .cls-2 {
        fill: #ffffff;
      }
    </style>
  </defs>
  <path d="M25.633,16.968 C25.633,16.968 24.675,22.040 24.675,22.040 C24.675,22.040 3.342,22.040 3.342,22.040 C3.342,22.040 2.385,16.968 2.385,16.968 C2.385,16.968 -0.000,16.968 -0.000,16.968 C-0.000,16.968 -0.000,25.031 -0.000,25.031 C-0.000,25.031 28.018,25.031 28.018,25.031 C28.018,25.031 28.018,16.968 28.018,16.968 C28.018,16.968 25.633,16.968 25.633,16.968 ZM25.028,7.959 C25.028,7.959 18.006,7.959 18.006,7.959 C18.006,7.959 18.006,5.029 18.006,5.029 C18.006,5.029 10.011,5.029 10.011,5.029 C10.011,5.029 10.011,7.959 10.011,7.959 C10.011,7.959 3.057,7.959 3.057,7.959 C3.057,7.959 13.972,19.370 13.972,19.370 C13.972,19.370 25.028,7.959 25.028,7.959 ZM18.006,-0.005 C18.006,-0.005 10.011,-0.005 10.011,-0.005 C10.011,-0.005 10.011,1.061 10.011,1.061 C10.011,1.061 18.006,1.061 18.006,1.061 C18.006,1.061 18.006,-0.005 18.006,-0.005 ZM18.006,1.987 C18.006,1.987 10.011,1.987 10.011,1.987 C10.011,1.987 10.011,4.025 10.011,4.025 C10.011,4.025 18.006,4.025 18.006,4.025 C18.006,4.025 18.006,1.987 18.006,1.987 Z" id="path-1" class="cls-2" fill-rule="evenodd"/>
</svg>
