<svg height="512" viewBox="0 0 512 512" width="512" xmlns="http://www.w3.org/2000/svg"><g><g fill="#57a4ff"><path d="m72 424h56l-16 48h-56z"/><path d="m456 472h-56l-8-24h-240l8-24h73.55c-6.22-6.84-13.43-14.94-21.26-24h87.42c-7.83 9.06-15.04 17.16-21.26 24h161.55z"/><path d="m128 424-16 48h-56l16-48z"/><path d="m456 472h-56l-8-24h-240l8-24h280z"/><path d="m256 16a168 168 0 0 0 -168 168c0 61.79 74.52 158.37 124.29 216 7.83 9.06 15.04 17.16 21.26 24 13.62 15 22.45 24 22.45 24s8.83-9 22.45-24c6.22-6.84 13.43-14.94 21.26-24 49.77-57.63 124.29-154.21 124.29-216a168 168 0 0 0 -168-168zm45 224.2a72 72 0 1 1 27-56.2 71.662 71.662 0 0 1 -27 56.2z"/></g><g fill="#004fac"><path d="m286 258.178a80.212 80.212 0 1 0 -30 5.822 79.819 79.819 0 0 0 30-5.822zm-70-24.215a63.722 63.722 0 1 1 16 9.385 63.731 63.731 0 0 1 -16-9.385z"/><path d="m503.59 493.47-32-96a8 8 0 0 0 -7.59-5.47h-146.84c49.75-59.17 114.84-148.05 114.84-208 0-97.05-78.95-176-176-176s-176 78.95-176 176c0 59.95 65.09 148.83 114.84 208h-146.84a8 8 0 0 0 -7.59 5.47l-32 96a8 8 0 0 0 7.59 10.53h480a8 8 0 0 0 7.59-10.53zm-407.59-309.47c0-88.22 71.78-160 160-160s160 71.78 160 160c0 78.99-130.82 221.62-160 252.44-29.18-30.82-160-173.45-160-252.44zm186.05 248h152.18l10.67 32h-39.13l-6.18-18.53a8 8 0 0 0 -7.59-5.47h-117.34c2.23-2.4 4.71-5.07 7.39-8zm-44.71 8h-74.24l2.67-8h64.18c2.68 2.93 5.16 5.6 7.39 8zm-210.24 48 26.67-80h153.52a8.923 8.923 0 0 0 1.16-.09q3.645 4.2 7.1 8.09h-55.55a8 8 0 0 0 -7.59 5.47l-8 24a8 8 0 0 0 7.59 10.53h234.23l6.18 18.53a8 8 0 0 0 7.59 5.47h56a8 8 0 0 0 7.59-10.53l-16-48a8 8 0 0 0 -7.59-5.47h-143.55q3.405-3.855 7.03-8.01c.08 0 .15.01.23.01h154.52l26.67 80z"/><path d="m368 464h-244.9l12.49-37.47a8 8 0 0 0 -7.59-10.53h-56a8 8 0 0 0 -7.589 5.47l-16 48a8 8 0 0 0 7.589 10.53h312a8 8 0 0 0 0-16zm-290.234-32h39.134l-10.666 32h-39.134z"/></g></g></svg>